<svg width="50" height="65" viewBox="0 0 50 65" fill="none" xmlns="http://www.w3.org/2000/svg">
<mask id="path-1-inside-1_321_3862" fill="white">
<path fill-rule="evenodd" clip-rule="evenodd" d="M41.2443 0.438654V46.8111C41.2443 47.1546 41.0142 47.4555 40.6826 47.5454L38.4523 48.1498L38.4452 48.1518C36.1965 48.761 33.8852 49.3873 31.6128 50.0056V30.3415L33.808 30.3763L33.5159 29.8965L31.6128 26.7184V6.49804C31.6128 4.90786 32.4844 3.48458 33.7987 2.9352L40.7158 0.0214039C40.7792 -0.000175704 40.8469 -0.00554552 40.9129 0.00578423C40.9789 0.017114 41.041 0.0447824 41.0936 0.0862667C41.1461 0.127751 41.1874 0.181732 41.2138 0.243284C41.2401 0.304836 41.2506 0.372001 41.2443 0.438654ZM16.6798 37.9911L14.5936 41.2781L16.6798 41.3106V54.0599L13.6664 54.8735C12.9874 55.0654 12.2857 55.1651 11.5801 55.1702H11.5384C10.0409 55.1702 8.75672 54.7182 7.9454 53.893C7.489 53.4295 7.17178 52.8472 7.02979 52.2124V36.6861C7.02979 35.0959 7.89905 33.6726 9.21339 33.1232L16.1328 30.2094C16.1959 30.188 16.2635 30.1826 16.3293 30.1938C16.395 30.205 16.457 30.2325 16.5095 30.2737C16.5619 30.3149 16.6033 30.3685 16.6298 30.4298C16.6563 30.491 16.6672 30.5579 16.6613 30.6244L16.6798 37.9911ZM26.9165 30.272L28.9633 27.0592V17.6317C28.9694 17.5649 28.9586 17.4977 28.9319 17.4363C28.9053 17.3748 28.8637 17.3209 28.8109 17.2797C28.7581 17.2384 28.6958 17.211 28.6297 17.2C28.5636 17.189 28.4958 17.1948 28.4325 17.2167L21.5154 20.1305C20.2011 20.6776 19.3295 22.1032 19.3295 23.6911V37.8034L21.1839 40.898L21.4737 41.3824L19.3295 41.35V53.332L28.9633 50.7219V30.3045L26.9165 30.272Z"/>
</mask>
<g filter="url(#filter0_i_321_3862)">
<path fill-rule="evenodd" clip-rule="evenodd" d="M41.2443 0.438654V46.8111C41.2443 47.1546 41.0142 47.4555 40.6826 47.5454L38.4523 48.1498L38.4452 48.1518C36.1965 48.761 33.8852 49.3873 31.6128 50.0056V30.3415L33.808 30.3763L33.5159 29.8965L31.6128 26.7184V6.49804C31.6128 4.90786 32.4844 3.48458 33.7987 2.9352L40.7158 0.0214039C40.7792 -0.000175704 40.8469 -0.00554552 40.9129 0.00578423C40.9789 0.017114 41.041 0.0447824 41.0936 0.0862667C41.1461 0.127751 41.1874 0.181732 41.2138 0.243284C41.2401 0.304836 41.2506 0.372001 41.2443 0.438654ZM16.6798 37.9911L14.5936 41.2781L16.6798 41.3106V54.0599L13.6664 54.8735C12.9874 55.0654 12.2857 55.1651 11.5801 55.1702H11.5384C10.0409 55.1702 8.75672 54.7182 7.9454 53.893C7.489 53.4295 7.17178 52.8472 7.02979 52.2124V36.6861C7.02979 35.0959 7.89905 33.6726 9.21339 33.1232L16.1328 30.2094C16.1959 30.188 16.2635 30.1826 16.3293 30.1938C16.395 30.205 16.457 30.2325 16.5095 30.2737C16.5619 30.3149 16.6033 30.3685 16.6298 30.4298C16.6563 30.491 16.6672 30.5579 16.6613 30.6244L16.6798 37.9911ZM26.9165 30.272L28.9633 27.0592V17.6317C28.9694 17.5649 28.9586 17.4977 28.9319 17.4363C28.9053 17.3748 28.8637 17.3209 28.8109 17.2797C28.7581 17.2384 28.6958 17.211 28.6297 17.2C28.5636 17.189 28.4958 17.1948 28.4325 17.2167L21.5154 20.1305C20.2011 20.6776 19.3295 22.1032 19.3295 23.6911V37.8034L21.1839 40.898L21.4737 41.3824L19.3295 41.35V53.332L28.9633 50.7219V30.3045L26.9165 30.272Z" fill="url(#paint0_linear_321_3862)"/>
</g>
<path d="M41.2443 0.438654L41.0135 0.4169L41.0125 0.427753V0.438654H41.2443ZM40.6826 47.5454L40.7432 47.7692L40.7432 47.7692L40.6826 47.5454ZM38.4523 48.1498L38.3917 47.9261L38.3916 47.9261L38.4523 48.1498ZM38.4452 48.1518L38.5058 48.3755L38.5059 48.3755L38.4452 48.1518ZM31.6128 50.0056H31.381V50.3089L31.6737 50.2292L31.6128 50.0056ZM31.6128 30.3415L31.6165 30.1098L31.381 30.106V30.3415H31.6128ZM33.808 30.3763L33.8043 30.6081L34.2245 30.6147L34.006 30.2558L33.808 30.3763ZM33.5159 29.8965L33.317 30.0156L33.3179 30.017L33.5159 29.8965ZM31.6128 26.7184H31.381V26.7825L31.4139 26.8375L31.6128 26.7184ZM33.7987 2.9352L33.8881 3.14907L33.8887 3.14882L33.7987 2.9352ZM40.7158 0.0214039L40.6411 -0.198029L40.6333 -0.195394L40.6258 -0.192221L40.7158 0.0214039ZM40.9129 0.00578423L40.9522 -0.222678L40.9129 0.00578423ZM41.0936 0.0862667L40.9499 0.268208V0.268208L41.0936 0.0862667ZM41.2138 0.243284L41.4269 0.152108L41.4269 0.152097L41.2138 0.243284ZM14.5936 41.2781L14.3979 41.1539L14.176 41.5035L14.59 41.5099L14.5936 41.2781ZM16.6798 37.9911L16.8755 38.1154L16.9118 38.0582L16.9116 37.9906L16.6798 37.9911ZM16.6798 41.3106H16.9116V41.0824L16.6834 41.0788L16.6798 41.3106ZM16.6798 54.0599L16.7402 54.2837L16.9116 54.2374V54.0599H16.6798ZM13.6664 54.8735L13.6059 54.6497L13.6033 54.6504L13.6664 54.8735ZM11.5801 55.1702V55.402L11.5818 55.402L11.5801 55.1702ZM7.9454 53.893L8.1107 53.7305L8.11058 53.7303L7.9454 53.893ZM7.02979 52.2124H6.79798V52.238L6.80357 52.263L7.02979 52.2124ZM9.21339 33.1232L9.30278 33.3371L9.30335 33.3369L9.21339 33.1232ZM16.1328 30.2094L16.0582 29.99L16.0504 29.9926L16.0428 29.9958L16.1328 30.2094ZM16.3293 30.1938L16.3682 29.9653L16.3682 29.9653L16.3293 30.1938ZM16.6298 30.4298L16.4171 30.5219L16.4171 30.5219L16.6298 30.4298ZM16.6613 30.6244L16.4304 30.604L16.4295 30.6145L16.4295 30.6249L16.6613 30.6244ZM28.9633 27.0592L29.1588 27.1837L29.1951 27.1268V27.0592H28.9633ZM26.9165 30.272L26.721 30.1475L26.4982 30.4972L26.9128 30.5038L26.9165 30.272ZM28.9633 17.6317L28.7325 17.6108L28.7315 17.6212V17.6317H28.9633ZM28.9319 17.4363L29.1446 17.3441L29.1446 17.3441L28.9319 17.4363ZM28.8109 17.2797L28.6681 17.4623L28.6681 17.4623L28.8109 17.2797ZM28.6297 17.2L28.6677 16.9714L28.6677 16.9714L28.6297 17.2ZM28.4325 17.2167L28.3565 16.9977L28.3494 17.0002L28.3425 17.0031L28.4325 17.2167ZM21.5154 20.1305L21.6045 20.3445L21.6054 20.3442L21.5154 20.1305ZM19.3295 37.8034H19.0977V37.8675L19.1307 37.9225L19.3295 37.8034ZM21.1839 40.898L21.3829 40.779L21.3828 40.7788L21.1839 40.898ZM21.4737 41.3824L21.4702 41.6142L21.8862 41.6205L21.6726 41.2634L21.4737 41.3824ZM19.3295 41.35L19.333 41.1182L19.0977 41.1146V41.35H19.3295ZM19.3295 53.332H19.0977V53.635L19.3901 53.5557L19.3295 53.332ZM28.9633 50.7219L29.024 50.9456L29.1951 50.8992V50.7219H28.9633ZM28.9633 30.3045H29.1951V30.0763L28.967 30.0727L28.9633 30.3045ZM41.4761 46.8111V0.438654H41.0125V46.8111H41.4761ZM40.7432 47.7692C41.1758 47.6519 41.4761 47.2593 41.4761 46.8111H41.0125C41.0125 47.05 40.8525 47.2592 40.6219 47.3217L40.7432 47.7692ZM38.513 48.3736L40.7432 47.7692L40.6219 47.3217L38.3917 47.9261L38.513 48.3736ZM38.5059 48.3755L38.5131 48.3735L38.3916 47.9261L38.3844 47.9281L38.5059 48.3755ZM31.6737 50.2292C33.9459 49.611 36.2571 48.9848 38.5058 48.3755L38.3845 47.928C36.1359 48.5373 33.8244 49.1636 31.552 49.7819L31.6737 50.2292ZM31.381 30.3415V50.0056H31.8446V30.3415H31.381ZM33.8117 30.1445L31.6165 30.1098L31.6091 30.5733L33.8043 30.6081L33.8117 30.1445ZM33.3179 30.017L33.61 30.4968L34.006 30.2558L33.7139 29.7759L33.3179 30.017ZM31.4139 26.8375L33.317 30.0156L33.7148 29.7774L31.8117 26.5993L31.4139 26.8375ZM31.381 6.49804V26.7184H31.8446V6.49804H31.381ZM33.7093 2.72132C32.2963 3.31196 31.381 4.82864 31.381 6.49804H31.8446C31.8446 4.98708 32.6725 3.6572 33.8881 3.14907L33.7093 2.72132ZM40.6258 -0.192221L33.7087 2.72157L33.8887 3.14882L40.8058 0.235029L40.6258 -0.192221ZM40.9522 -0.222678C40.848 -0.240556 40.7411 -0.232083 40.6411 -0.198029L40.7905 0.240836C40.8173 0.231732 40.8458 0.229465 40.8737 0.234246L40.9522 -0.222678ZM41.2372 -0.0956742C41.1543 -0.161139 41.0563 -0.204799 40.9522 -0.222678L40.8737 0.234246C40.9015 0.239027 40.9277 0.250704 40.9499 0.268208L41.2372 -0.0956742ZM41.4269 0.152097C41.3853 0.0549812 41.3201 -0.0302037 41.2372 -0.0956742L40.9499 0.268208C40.9721 0.285706 40.9895 0.308483 41.0006 0.334472L41.4269 0.152097ZM41.4751 0.460408C41.485 0.355214 41.4684 0.249227 41.4269 0.152108L41.0006 0.334461C41.0118 0.360445 41.0162 0.388787 41.0135 0.4169L41.4751 0.460408ZM14.7893 41.4024L16.8755 38.1154L16.4841 37.8669L14.3979 41.1539L14.7893 41.4024ZM16.6834 41.0788L14.5972 41.0464L14.59 41.5099L16.6762 41.5424L16.6834 41.0788ZM16.9116 54.0599V41.3106H16.448V54.0599H16.9116ZM13.7268 55.0973L16.7402 54.2837L16.6194 53.8361L13.6059 54.6497L13.7268 55.0973ZM11.5818 55.402C12.3081 55.3968 13.0304 55.2941 13.7294 55.0966L13.6033 54.6504C12.9443 54.8366 12.2633 54.9335 11.5784 54.9384L11.5818 55.402ZM11.5384 55.402H11.5801V54.9384H11.5384V55.402ZM7.78011 54.0555C8.64732 54.9376 9.99885 55.402 11.5384 55.402V54.9384C10.083 54.9384 8.86613 54.4988 8.1107 53.7305L7.78011 54.0555ZM6.80357 52.263C6.95503 52.9401 7.2934 53.5612 7.78023 54.0556L8.11058 53.7303C7.6846 53.2977 7.38853 52.7543 7.256 52.1618L6.80357 52.263ZM6.79798 36.6861V52.2124H7.26159V36.6861H6.79798ZM9.12399 32.9093C7.71074 33.5001 6.79798 35.0169 6.79798 36.6861H7.26159C7.26159 35.1748 8.08736 33.8451 9.30278 33.3371L9.12399 32.9093ZM16.0428 29.9958L9.12342 32.9096L9.30335 33.3369L16.2227 30.4231L16.0428 29.9958ZM16.3682 29.9653C16.2644 29.9476 16.1579 29.9561 16.0582 29.99L16.2074 30.4289C16.234 30.4198 16.2625 30.4176 16.2903 30.4223L16.3682 29.9653ZM16.6526 30.0914C16.5698 30.0263 16.472 29.983 16.3682 29.9653L16.2903 30.4223C16.318 30.427 16.3442 30.4386 16.3663 30.456L16.6526 30.0914ZM16.8425 30.3377C16.8007 30.2411 16.7354 30.1564 16.6526 30.0914L16.3663 30.456C16.3885 30.4734 16.4059 30.496 16.4171 30.5219L16.8425 30.3377ZM16.8922 30.6447C16.9015 30.5398 16.8844 30.4343 16.8425 30.3377L16.4171 30.5219C16.4283 30.5477 16.4329 30.5759 16.4304 30.604L16.8922 30.6447ZM16.9116 37.9906L16.8931 30.6238L16.4295 30.6249L16.448 37.9917L16.9116 37.9906ZM28.7678 26.9346L26.721 30.1475L27.112 30.3966L29.1588 27.1837L28.7678 26.9346ZM28.7315 17.6317V27.0592H29.1951V17.6317H28.7315ZM28.7192 17.5284C28.7305 17.5543 28.735 17.5827 28.7325 17.6108L29.1942 17.6525C29.2037 17.5472 29.1866 17.4412 29.1446 17.3441L28.7192 17.5284ZM28.6681 17.4623C28.6904 17.4797 28.708 17.5024 28.7192 17.5284L29.1446 17.3441C29.1026 17.2471 29.037 17.1622 28.9537 17.097L28.6681 17.4623ZM28.5917 17.4287C28.6196 17.4333 28.6459 17.4449 28.6681 17.4623L28.9537 17.097C28.8703 17.0319 28.772 16.9887 28.6677 16.9714L28.5917 17.4287ZM28.5085 17.4357C28.5352 17.4265 28.5638 17.424 28.5917 17.4287L28.6677 16.9714C28.5634 16.954 28.4564 16.9631 28.3565 16.9977L28.5085 17.4357ZM21.6054 20.3442L28.5225 17.4304L28.3425 17.0031L21.4254 19.9169L21.6054 20.3442ZM19.5613 23.6911C19.5613 22.1822 20.3893 20.8503 21.6045 20.3445L21.4264 19.9165C20.0129 20.5048 19.0977 22.0241 19.0977 23.6911H19.5613ZM19.5613 37.8034V23.6911H19.0977V37.8034H19.5613ZM21.3828 40.7788L19.5283 37.6842L19.1307 37.9225L20.9851 41.0171L21.3828 40.7788ZM21.6726 41.2634L21.3829 40.779L20.985 41.0169L21.2748 41.5014L21.6726 41.2634ZM19.326 41.5818L21.4702 41.6142L21.4772 41.1507L19.333 41.1182L19.326 41.5818ZM19.5613 53.332V41.35H19.0977V53.332H19.5613ZM28.9027 50.4981L19.2689 53.1083L19.3901 53.5557L29.024 50.9456L28.9027 50.4981ZM28.7315 30.3045V50.7219H29.1951V30.3045H28.7315ZM26.9128 30.5038L28.9597 30.5362L28.967 30.0727L26.9202 30.0402L26.9128 30.5038Z" fill="url(#paint1_linear_321_3862)" mask="url(#path-1-inside-1_321_3862)"/>
<path d="M33.5252 29.8918H33.5182L31.6151 26.7161L33.5252 29.8918Z" fill="white"/>
<path d="M19.3318 37.8057L21.1839 40.8979H21.1932L19.3318 37.7987V37.8057Z" fill="white"/>
<path d="M0.101785 59.9173L0.101784 59.9173C0.0898195 61.2235 0.499474 62.3522 1.48815 63.2084L1.48854 63.2088C2.76386 64.3245 4.40832 64.9263 6.10255 64.8975L6.10427 64.8975C8.38955 64.8975 10.6556 63.9933 12.4717 63.2685C12.5028 63.2561 12.5338 63.2438 12.5646 63.2315L12.5648 63.2314C14.099 62.623 23.3553 58.6298 32.2311 54.7873C36.6684 52.8664 41.0096 50.9835 44.2415 49.5809C45.8575 48.8795 47.1961 48.2983 48.1308 47.8923L49.2139 47.4219L49.4985 47.2982L49.5714 47.2665L49.5898 47.2585L49.5933 47.257C49.6652 47.2205 49.7085 47.1856 49.7305 47.1598C49.7277 47.1593 49.7247 47.1588 49.7214 47.1584C49.6801 47.1533 49.6129 47.1572 49.5172 47.1814L49.5167 47.1815L49.5145 47.1821L49.5079 47.1838L49.4843 47.1901L49.3982 47.2133L49.0765 47.3001L47.883 47.6229C46.8608 47.8996 45.4096 48.2925 43.6727 48.7629C40.1989 49.7037 35.5827 50.9543 30.9715 52.2036L18.3012 55.6368L14.1294 56.7672L12.961 57.0839L12.6532 57.1673L12.5742 57.1887L12.5543 57.1941L12.5492 57.1954L12.5487 57.1956C11.8462 57.3949 11.1202 57.5 10.39 57.5081L10.3895 57.5081C8.95748 57.5163 7.596 57.1233 6.59299 56.301C5.58729 55.4765 4.95079 54.2273 4.96104 52.545C4.96104 52.5449 4.96104 52.5448 4.96104 52.5447L5.06257 52.5453C5.06257 51.3364 5.41621 49.8958 6.20928 48.217L0.101785 59.9173ZM0.101785 59.9173C0.116792 58.1745 0.89103 56.1286 2.07483 54.0355C3.13462 52.1616 4.51753 50.2588 5.96073 48.5151L0.101785 59.9173ZM49.7451 47.1374C49.7451 47.1374 49.745 47.1379 49.7446 47.139L49.7451 47.1374Z" fill="url(#paint2_linear_321_3862)" stroke="url(#paint3_linear_321_3862)" stroke-width="0.203061"/>
<defs>
<filter id="filter0_i_321_3862" x="7.02979" y="0" width="34.2163" height="56.1518" filterUnits="userSpaceOnUse" color-interpolation-filters="sRGB">
<feFlood flood-opacity="0" result="BackgroundImageFix"/>
<feBlend mode="normal" in="SourceGraphic" in2="BackgroundImageFix" result="shape"/>
<feColorMatrix in="SourceAlpha" type="matrix" values="0 0 0 0 0 0 0 0 0 0 0 0 0 0 0 0 0 0 127 0" result="hardAlpha"/>
<feOffset dy="0.981584"/>
<feGaussianBlur stdDeviation="1.28595"/>
<feComposite in2="hardAlpha" operator="arithmetic" k2="-1" k3="1"/>
<feColorMatrix type="matrix" values="0 0 0 0 1 0 0 0 0 0.84 0 0 0 0 0 0 0 0 1 0"/>
<feBlend mode="color-dodge" in2="shape" result="effect1_innerShadow_321_3862"/>
</filter>
<linearGradient id="paint0_linear_321_3862" x1="2.25967" y1="-3.58234" x2="33.548" y2="60.7325" gradientUnits="userSpaceOnUse">
<stop stop-color="#DCBA45"/>
<stop offset="0.31" stop-color="#FFF168"/>
<stop offset="0.7" stop-color="#E8B641"/>
<stop offset="1" stop-color="#D8AD42"/>
</linearGradient>
<linearGradient id="paint1_linear_321_3862" x1="24.1286" y1="0.00188563" x2="24.1286" y2="55.168" gradientUnits="userSpaceOnUse">
<stop stop-color="#FFEC66"/>
<stop offset="0.3" stop-color="#CD9E2C"/>
<stop offset="0.61" stop-color="#FFFE77"/>
<stop offset="1" stop-color="#CEA132"/>
</linearGradient>
<linearGradient id="paint2_linear_321_3862" x1="13.9099" y1="38.4833" x2="14.7564" y2="68.9574" gradientUnits="userSpaceOnUse">
<stop stop-color="#DCBA45"/>
<stop offset="0.31" stop-color="#FFF168"/>
<stop offset="0.7" stop-color="#E8B641"/>
<stop offset="1" stop-color="#D8AD42"/>
</linearGradient>
<linearGradient id="paint3_linear_321_3862" x1="24.9096" y1="47.0555" x2="24.9096" y2="64.9993" gradientUnits="userSpaceOnUse">
<stop stop-color="#FFEC66"/>
<stop offset="0.3" stop-color="#CD9E2C"/>
<stop offset="0.61" stop-color="#FFFE77"/>
<stop offset="1" stop-color="#CEA132"/>
</linearGradient>
</defs>
</svg>
